<svg xmlns="http://www.w3.org/2000/svg" viewBox="0 0 512 512">
  <defs>
    <linearGradient id="bg" x1="80" y1="46" x2="438" y2="462" gradientUnits="userSpaceOnUse">
      <stop stop-color="#25c894"/>
      <stop offset="1" stop-color="#0f6b5d"/>
    </linearGradient>
    <linearGradient id="wallet" x1="122" y1="142" x2="396" y2="378" gradientUnits="userSpaceOnUse">
      <stop stop-color="#ffffff"/>
      <stop offset="1" stop-color="#eefcf8"/>
    </linearGradient>
    <filter id="shadow" x="78" y="92" width="360" height="340" filterUnits="userSpaceOnUse" color-interpolation-filters="sRGB">
      <feDropShadow dx="0" dy="22" stdDeviation="20" flood-color="#063b33" flood-opacity=".34"/>
    </filter>
  </defs>
  <rect width="512" height="512" rx="116" fill="url(#bg)"/>
  <circle cx="392" cy="118" r="74" fill="#ffffff" opacity=".16"/>
  <circle cx="112" cy="404" r="96" fill="#0b3f38" opacity=".12"/>
  <g filter="url(#shadow)">
    <path d="M132 220h248c28 0 50 22 50 50v92c0 28-22 50-50 50H132c-28 0-50-22-50-50v-92c0-28 22-50 50-50Z" fill="url(#wallet)"/>
    <path d="M132 220 300 122h52c28 0 50 22 50 50v48" fill="none" stroke="#ffffff" stroke-width="42" stroke-linecap="round" stroke-linejoin="round" opacity=".94"/>
    <path d="M322 292h108v74H322c-22 0-39-17-39-37s17-37 39-37Z" fill="#0f1923"/>
    <circle cx="333" cy="329" r="15" fill="#25c894"/>
    <path d="M148 310h96" stroke="#0f1923" stroke-width="28" stroke-linecap="round"/>
    <path d="M148 354h58" stroke="#0f1923" stroke-width="24" stroke-linecap="round" opacity=".56"/>
  </g>
</svg>
